<svg width="280" height="311" viewBox="0 0 280 311" fill="none" xmlns="http://www.w3.org/2000/svg">
<path fill-rule="evenodd" clip-rule="evenodd" d="M279.142 216.458V95.0263C279.142 82.9559 272.684 71.822 262.162 65.7868L156.951 5.01874C146.43 -1.01645 133.617 -1.01645 123.096 5.01874L17.8843 65.6828C7.36319 71.718 0.904663 82.8518 0.904663 95.0263V216.458C0.904663 228.529 7.36319 239.663 17.8843 245.698L123.096 306.362C133.617 312.397 146.43 312.397 156.951 306.362L262.267 245.594C272.684 239.663 279.142 228.529 279.142 216.458Z" fill="#9330B4"/>
<path fill-rule="evenodd" clip-rule="evenodd" d="M140.075 292.21C137.471 292.21 134.867 291.482 132.471 290.233L27.2596 229.465C22.572 226.76 19.6552 221.765 19.6552 216.354V95.0263C19.6552 89.6154 22.572 84.6208 27.1554 81.9154L132.471 21.1473C134.763 19.7945 137.367 19.1702 140.075 19.1702C142.784 19.1702 145.284 19.8986 147.68 21.1473L252.995 81.9154C257.683 84.6208 260.6 89.6154 260.6 95.0263V216.458C260.6 221.869 257.683 226.864 252.995 229.569L147.68 290.337C145.284 291.482 142.68 292.21 140.075 292.21Z" fill="#61FCD7"/>
<mask id="mask0_4_35" style="mask-type:alpha" maskUnits="userSpaceOnUse" x="10" y="133" width="259" height="61">
<path d="M10.6457 133.301H268.646V193.301H10.6457V133.301Z" fill="white"/>
</mask>
<g mask="url(#mask0_4_35)">
<path fill-rule="evenodd" clip-rule="evenodd" d="M10.6457 34.2317H268.646V292.232H10.6457V34.2317Z" fill="#9330B4"/>
</g>
<mask id="mask1_4_35" style="mask-type:alpha" maskUnits="userSpaceOnUse" x="122" y="244" width="36" height="35">
<path d="M122 244H157.139V278.037H122V244Z" fill="white"/>
</mask>
<g mask="url(#mask1_4_35)">
<path fill-rule="evenodd" clip-rule="evenodd" d="M144.917 255.167L157.139 256.912L148.335 265.657L150.471 277.948L139.523 272.186L128.621 278.037L130.658 265.73L121.785 257.056L133.993 255.212L139.41 244L144.917 255.167Z" fill="white"/>
</g>
<path fill-rule="evenodd" clip-rule="evenodd" d="M178.87 65.8803C178.87 64.6713 178.312 63.7413 177.289 63.0903C177.103 62.9973 176.824 62.8113 176.638 62.7183C176.638 59.6494 176.545 56.4875 176.359 53.3256C175.987 46.0718 172.174 42.5378 165.013 42.4448C158.782 42.4448 152.551 42.4448 146.32 42.4448C136.183 42.4448 126.139 42.3518 116.002 42.5378C106.702 42.7238 102.982 46.6297 102.982 55.9295C102.982 58.1614 102.982 60.3934 102.982 62.7183C102.424 62.9043 101.959 63.3693 101.587 63.8343C100.936 64.3923 100.75 65.2293 100.75 66.1592C100.75 70.4371 100.75 74.715 100.75 79.0859C100.75 80.3879 101.215 81.4109 102.331 82.0618C102.61 82.2478 102.796 82.3408 103.075 82.4338C103.075 91.6406 103.075 100.754 103.075 109.961C103.075 111.263 102.889 112.751 103.54 113.867C104.935 116.099 104.656 118.517 104.749 120.935C104.842 123.911 106.795 125.957 109.771 126.05C111.91 126.143 114.049 126.143 116.188 126.05C119.257 125.957 121.21 124.19 121.303 121.121C121.396 119.819 121.582 119.354 123.07 119.354C134.23 119.447 145.483 119.447 156.643 119.354C158.038 119.354 158.41 119.726 158.41 121.121C158.503 124.376 160.456 126.05 163.711 126.05C165.571 126.05 167.431 126.05 169.291 126.05C173.104 126.05 174.964 124.097 175.057 120.284C175.057 118.796 174.592 117.122 175.429 115.727C176.452 113.867 176.731 112.007 176.731 109.961C176.731 101.312 176.731 92.6636 176.731 82.4338C177.382 82.3408 177.94 81.7829 178.312 81.2249C178.777 80.6669 178.963 79.9229 178.963 79.1789C178.87 74.808 178.87 70.3441 178.87 65.8803ZM124.279 49.1407C129.859 49.1407 135.439 49.1407 140.926 49.1407C146.32 49.1407 151.714 49.1407 157.201 49.1407C159.619 49.1407 159.898 49.5127 159.991 52.3026C159.991 55.3715 159.712 55.8365 157.387 55.8365C146.32 55.8365 135.253 55.8365 124.279 55.8365C121.861 55.8365 121.396 55.2785 121.396 52.4886C121.303 49.6987 121.768 49.1407 124.279 49.1407ZM117.304 111.077C114.049 111.077 111.352 108.38 111.352 105.125C111.445 101.963 114.142 99.3594 117.211 99.3594C120.466 99.3594 122.884 101.87 122.884 105.218C122.977 108.473 120.466 111.077 117.304 111.077ZM116.467 90.9896C112.933 90.9896 111.352 89.3157 111.352 85.6888C111.352 79.1789 111.352 72.6691 111.352 66.1592C111.352 62.5323 112.84 61.0444 116.467 61.0444C124.279 61.0444 131.998 61.0444 139.81 61.0444C147.436 61.0444 155.062 61.0444 162.688 61.0444C166.78 61.0444 168.175 62.4393 168.175 66.4382C168.175 72.6691 168.175 78.8999 168.175 85.1308C168.175 88.8507 166.129 90.8966 162.409 90.9896C147.157 90.9896 131.812 90.9896 116.467 90.9896ZM162.409 111.077C159.247 111.077 156.736 108.566 156.643 105.311C156.643 101.963 159.061 99.4524 162.316 99.4524C165.571 99.4524 168.268 102.149 168.268 105.404C168.175 108.38 165.571 111.077 162.409 111.077Z" fill="white"/>
<path d="M29.9436 179.45C27.5436 179.45 25.7136 178.775 24.4536 177.425C23.1936 176.045 22.5636 174.08 22.5636 171.53V154.97C22.5636 152.42 23.1936 150.47 24.4536 149.12C25.7136 147.74 27.5436 147.05 29.9436 147.05C32.3436 147.05 34.1736 147.74 35.4336 149.12C36.6936 150.47 37.3236 152.42 37.3236 154.97V157.67H32.6436V154.655C32.6436 152.585 31.7886 151.55 30.0786 151.55C28.3686 151.55 27.5136 152.585 27.5136 154.655V171.89C27.5136 173.93 28.3686 174.95 30.0786 174.95C31.7886 174.95 32.6436 173.93 32.6436 171.89V165.725H30.1686V161.225H37.3236V171.53C37.3236 174.08 36.6936 176.045 35.4336 177.425C34.1736 178.775 32.3436 179.45 29.9436 179.45ZM44.3717 152H39.1967V147.5H54.4967V152H49.3217V179H44.3717V152ZM56.8933 147.5H69.9883V152H61.8433V160.775H68.2333V165.275H61.8433V179H56.8933V147.5ZM78.7971 179.45C76.3971 179.45 74.5821 178.775 73.3521 177.425C72.1221 176.045 71.5071 174.08 71.5071 171.53V169.73H76.1871V171.89C76.1871 173.93 77.0421 174.95 78.7521 174.95C79.5921 174.95 80.2221 174.71 80.6421 174.23C81.0921 173.72 81.3171 172.91 81.3171 171.8C81.3171 170.48 81.0171 169.325 80.4171 168.335C79.8171 167.315 78.7071 166.1 77.0871 164.69C75.0471 162.89 73.6221 161.27 72.8121 159.83C72.0021 158.36 71.5971 156.71 71.5971 154.88C71.5971 152.39 72.2271 150.47 73.4871 149.12C74.7471 147.74 76.5771 147.05 78.9771 147.05C81.3471 147.05 83.1321 147.74 84.3321 149.12C85.5621 150.47 86.1771 152.42 86.1771 154.97V156.275H81.4971V154.655C81.4971 153.575 81.2871 152.795 80.8671 152.315C80.4471 151.805 79.8321 151.55 79.0221 151.55C77.3721 151.55 76.5471 152.555 76.5471 154.565C76.5471 155.705 76.8471 156.77 77.4471 157.76C78.0771 158.75 79.2021 159.95 80.8221 161.36C82.8921 163.16 84.3171 164.795 85.0971 166.265C85.8771 167.735 86.2671 169.46 86.2671 171.44C86.2671 174.02 85.6221 176 84.3321 177.38C83.0721 178.76 81.2271 179.45 78.7971 179.45ZM88.2095 161H98.1095V165.5H88.2095V161ZM101.632 152H96.4575V147.5H111.757V152H106.582V179H101.632V152ZM121.133 179.45C118.703 179.45 116.843 178.76 115.553 177.38C114.263 176 113.618 174.05 113.618 171.53V154.97C113.618 152.45 114.263 150.5 115.553 149.12C116.843 147.74 118.703 147.05 121.133 147.05C123.563 147.05 125.423 147.74 126.713 149.12C128.003 150.5 128.648 152.45 128.648 154.97V171.53C128.648 174.05 128.003 176 126.713 177.38C125.423 178.76 123.563 179.45 121.133 179.45ZM121.133 174.95C122.843 174.95 123.698 173.915 123.698 171.845V154.655C123.698 152.585 122.843 151.55 121.133 151.55C119.423 151.55 118.568 152.585 118.568 154.655V171.845C118.568 173.915 119.423 174.95 121.133 174.95ZM131.276 161H141.176V165.5H131.276V161ZM151.145 179.45C148.745 179.45 146.915 178.775 145.655 177.425C144.395 176.045 143.765 174.08 143.765 171.53V154.97C143.765 152.42 144.395 150.47 145.655 149.12C146.915 147.74 148.745 147.05 151.145 147.05C153.545 147.05 155.375 147.74 156.635 149.12C157.895 150.47 158.525 152.42 158.525 154.97V157.67H153.845V154.655C153.845 152.585 152.99 151.55 151.28 151.55C149.57 151.55 148.715 152.585 148.715 154.655V171.89C148.715 173.93 149.57 174.95 151.28 174.95C152.99 174.95 153.845 173.93 153.845 171.89V165.725H151.37V161.225H158.525V171.53C158.525 174.08 157.895 176.045 156.635 177.425C155.375 178.775 153.545 179.45 151.145 179.45ZM161.703 147.5H175.203V152H166.653V160.325H173.448V164.825H166.653V174.5H175.203V179H161.703V147.5ZM185.206 179.45C182.776 179.45 180.916 178.76 179.626 177.38C178.336 176 177.691 174.05 177.691 171.53V154.97C177.691 152.45 178.336 150.5 179.626 149.12C180.916 147.74 182.776 147.05 185.206 147.05C187.636 147.05 189.496 147.74 190.786 149.12C192.076 150.5 192.721 152.45 192.721 154.97V171.53C192.721 174.05 192.076 176 190.786 177.38C189.496 178.76 187.636 179.45 185.206 179.45ZM185.206 174.95C186.916 174.95 187.771 173.915 187.771 171.845V154.655C187.771 152.585 186.916 151.55 185.206 151.55C183.496 151.55 182.641 152.585 182.641 154.655V171.845C182.641 173.915 183.496 174.95 185.206 174.95ZM197.062 179.18C196.162 179.18 195.397 179.12 194.767 179V174.5C195.247 174.62 195.787 174.68 196.387 174.68C197.377 174.68 198.112 174.44 198.592 173.96C199.072 173.45 199.312 172.685 199.312 171.665V147.5H204.262V171.53C204.262 174.11 203.662 176.03 202.462 177.29C201.292 178.55 199.492 179.18 197.062 179.18ZM214.237 179.45C211.837 179.45 210.022 178.775 208.792 177.425C207.562 176.045 206.947 174.08 206.947 171.53V169.73H211.627V171.89C211.627 173.93 212.482 174.95 214.192 174.95C215.032 174.95 215.662 174.71 216.082 174.23C216.532 173.72 216.757 172.91 216.757 171.8C216.757 170.48 216.457 169.325 215.857 168.335C215.257 167.315 214.147 166.1 212.527 164.69C210.487 162.89 209.062 161.27 208.252 159.83C207.442 158.36 207.037 156.71 207.037 154.88C207.037 152.39 207.667 150.47 208.927 149.12C210.187 147.74 212.017 147.05 214.417 147.05C216.787 147.05 218.572 147.74 219.772 149.12C221.002 150.47 221.617 152.42 221.617 154.97V156.275H216.937V154.655C216.937 153.575 216.727 152.795 216.307 152.315C215.887 151.805 215.272 151.55 214.462 151.55C212.812 151.55 211.987 152.555 211.987 154.565C211.987 155.705 212.287 156.77 212.887 157.76C213.517 158.75 214.642 159.95 216.262 161.36C218.332 163.16 219.757 164.795 220.537 166.265C221.317 167.735 221.707 169.46 221.707 171.44C221.707 174.02 221.062 176 219.772 177.38C218.512 178.76 216.667 179.45 214.237 179.45ZM231.7 179.45C229.27 179.45 227.41 178.76 226.12 177.38C224.83 176 224.185 174.05 224.185 171.53V154.97C224.185 152.45 224.83 150.5 226.12 149.12C227.41 147.74 229.27 147.05 231.7 147.05C234.13 147.05 235.99 147.74 237.28 149.12C238.57 150.5 239.215 152.45 239.215 154.97V171.53C239.215 174.05 238.57 176 237.28 177.38C235.99 178.76 234.13 179.45 231.7 179.45ZM231.7 174.95C233.41 174.95 234.265 173.915 234.265 171.845V154.655C234.265 152.585 233.41 151.55 231.7 151.55C229.99 151.55 229.135 152.585 229.135 154.655V171.845C229.135 173.915 229.99 174.95 231.7 174.95ZM242.562 147.5H248.772L253.587 166.355H253.677V147.5H258.087V179H253.002L247.062 156.005H246.972V179H242.562V147.5Z" fill="white"/>
</svg>
